<?xml version="1.0" standalone="no"?>
<!DOCTYPE svg PUBLIC "-//W3C//DTD SVG 20010904//EN"
 "http://www.w3.org/TR/2001/REC-SVG-20010904/DTD/svg10.dtd">
<svg version="1.0" xmlns="http://www.w3.org/2000/svg"
 width="600.000000pt" height="132.000000pt" viewBox="0 0 600.000000 132.000000"
 preserveAspectRatio="xMidYMid meet">
<metadata>Created by MIT, with credit to Genus Design for the font</metadata>
<g transform="translate(0.000000,132.000000) scale(0.100000,-0.100000)"
fill="#D8DF20" stroke="none">
<path d="M232 583 l3 -498 85 0 85 0 5 420 5 420 145 3 c182 4 215 -4 231 -57
30 -100 -36 -183 -174 -221 -69 -19 -67 -14 -46 -117 12 -62 12 -62 43 -56 80
14 191 55 226 83 14 11 34 25 45 31 23 11 73 85 92 133 14 38 16 159 4 203 -5
18 -24 51 -43 73 -58 73 -65 74 -406 78 l-302 3 2 -498z"/>
<path d="M3296 1072 c-3 -4 -15 -35 -27 -68 -12 -32 -28 -66 -35 -75 -8 -8
-14 -21 -14 -28 0 -7 -15 -45 -33 -84 -19 -40 -39 -88 -46 -107 -7 -19 -19
-47 -27 -62 -8 -15 -26 -58 -40 -95 -14 -37 -29 -73 -34 -78 -5 -6 -18 -37
-31 -70 -12 -33 -25 -65 -30 -71 -5 -6 -20 -40 -34 -77 -13 -36 -34 -83 -45
-104 -37 -70 -33 -74 72 -71 l91 3 18 54 c10 29 23 59 28 65 5 6 21 45 35 86
14 41 35 91 45 110 10 19 24 53 31 75 7 22 16 45 21 50 4 6 19 40 32 75 62
162 116 280 128 280 4 0 12 -15 19 -32 8 -18 19 -40 25 -48 7 -8 20 -40 31
-70 10 -30 23 -62 29 -70 12 -17 40 -82 50 -117 6 -23 5 -23 -98 -23 l-105 0
-7 -27 c-3 -15 -15 -45 -26 -67 -33 -68 -36 -66 135 -66 l155 0 20 -29 c12
-16 21 -32 21 -36 0 -3 23 -53 51 -111 l51 -104 94 0 c60 0 94 4 94 11 0 5
-18 47 -39 92 -22 46 -43 95 -46 109 -4 15 -13 32 -21 39 -8 6 -14 18 -14 25
0 7 -16 47 -35 88 -19 41 -44 101 -56 133 -12 32 -28 65 -35 74 -8 8 -14 21
-14 28 0 7 -15 43 -33 79 -19 37 -40 85 -47 106 -11 35 -47 114 -83 186 -12
24 -17 25 -114 28 -56 1 -104 -1 -107 -6z"/>
<path d="M1550 560 l0 -500 333 2 332 3 0 80 0 80 -242 3 -243 2 0 130 0 130
230 0 230 0 0 80 0 80 -227 2 -228 3 0 125 0 125 238 3 237 2 0 75 0 75 -330
0 -330 0 0 -500z"/>
<path d="M4620 560 l0 -501 88 3 87 3 3 498 2 497 -90 0 -90 0 0 -500z"/>
<path d="M5154 965 c-49 -52 -131 -139 -182 -192 -52 -54 -97 -107 -101 -118
-5 -11 -7 -38 -6 -60 2 -22 3 -47 4 -56 1 -14 64 -90 175 -209 18 -19 63 -71
101 -115 38 -44 85 -97 106 -118 l37 -37 116 0 c71 0 116 4 116 10 0 6 -28 39
-62 74 -35 36 -106 110 -158 165 -52 56 -135 142 -183 192 -48 51 -86 95 -85
99 5 12 174 193 306 326 67 69 122 127 122 129 0 3 -49 5 -108 5 l-108 0 -90
-95z"/>
</g>
</svg>
